{"title":"Glee S02E11 HDTV XviD-LOL","uid":6156939,"size":576341906,"categoryP":"video","categoryS":"tv_shows","magnet":"?xt=urn:btih:764e34d7d0f8673c59e01d0dfb71dc97cb3b65a8&amp;dn=Glee+S02E11+HDTV+XviD-LOL&amp;tr=udp%3A%2F%2Ftracker.openbittorrent.com%3A80&amp;tr=udp%3A%2F%2Fopen.demonii.com%3A1337&amp;tr=udp%3A%2F%2Ftracker.coppersurfer.tk%3A6969&amp;tr=udp%3A%2F%2Fexodus.desync.com%3A6969","seeders":2,"leechers":0,"uploader":"TheCloon","files":-1,"time":1297073421,"description":"Glee S02E11 HDTV XviD-LOL\n\nPlot:\nWhen the football team continues to harass the male glee club members, Schuester and Beiste decide to force the groups to work together. Meanwhile, Sue comes up with a new cheerleading stunt involving a circus cannon and Brittany and the other girls have to choose whether to put their lives at risk, or join the glee club in a half-time mashup of &quot;Thriller&quot; and &quot;Heads Will Roll&quot;\n\n\nFormat                           : AVI\nFormat/Info                      : Audio Video Interleave\nFile size                        : 550 MiB\nDuration                         : 48mn 22s\nOverall bit rate                 : 1 588 Kbps\nWriting application              : transcode-1.0.6\n\nVideo\nID                               : 0\nFormat                           : MPEG-4 Visual\nFormat profile                   : Advanced Simple@L5\nFormat settings, BVOP            : 2\nFormat settings, QPel            : No\nFormat settings, GMC             : No warppoints\nFormat settings, Matrix          : Default (H.263)\nCodec ID                         : XVID\nCodec ID/Hint                    : XviD\nDuration                         : 48mn 22s\nBit rate                         : 1 412 Kbps\nWidth                            : 624 pixels\nHeight                           : 352 pixels\nDisplay aspect ratio             : 16:9\nFrame rate                       : 23.976 fps\nColor space                      : YUV\nChroma subsampling               : 4:2:0\nBit depth                        : 8 bits\nScan type                        : Progressive\nCompression mode                 : Lossy\nBits/(Pixel*Frame)               : 0.268\nStream size                      : 489 MiB (89%)\nWriting library                  : XviD 1.2.1 (UTC 2008-12-04)\n\nAudio\nID                               : 1\nFormat                           : MPEG Audio\nFormat version                   : Version 1\nFormat profile                   : Layer 3\nMode                             : Joint stereo\nMode extension                   : MS Stereo\nCodec ID                         : 55\nCodec ID/Hint                    : MP3\nDuration                         : 48mn 22s\nBit rate mode                    : Variable\nBit rate                         : 160 Kbps\nChannel(s)                       : 2 channels\nSampling rate                    : 48.0 KHz\nCompression mode                 : Lossy\nStream size                      : 56.5 MiB (10%)\nAlignment                        : Aligned on interleaves\nInterleave, duration             : 24 ms (0.58 video frame)\nWriting library                  : LAME3.90.\nEncoding settings                : -m j -V 4 -q 2 -lowpass 18 --abr 160\n\n","torrent":{"xt":"urn:btih:764e34d7d0f8673c59e01d0dfb71dc97cb3b65a8","amp;dn":"Glee+S02E11+HDTV+XviD-LOL","amp;tr":["udp%3A%2F%2Ftracker.openbittorrent.com%3A80","udp%3A%2F%2Fopen.demonii.com%3A1337","udp%3A%2F%2Ftracker.coppersurfer.tk%3A6969","udp%3A%2F%2Fexodus.desync.com%3A6969"],"infoHash":"764e34d7d0f8673c59e01d0dfb71dc97cb3b65a8","infoHashBuffer":{"type":"Buffer","data":[118,78,52,215,208,248,103,60,89,224,29,13,251,113,220,151,203,59,101,168]},"announce":[],"urlList":[]}}